<svg width="148" height="148" viewBox="0 0 148 148" fill="none" xmlns="http://www.w3.org/2000/svg">
<path d="M0 73.9304C0 72.2596 0.556914 70.7977 1.74036 69.6143C2.9238 68.5005 4.3857 67.9436 5.91722 67.9436H20.1185C21.7197 67.9436 23.0423 68.5005 24.1562 69.6839C25.2004 70.8674 25.7573 72.2596 25.7573 73.9304C25.7573 75.6011 25.27 76.9934 24.2258 78.1769C23.1816 79.3603 21.7893 79.9172 20.1881 79.9172H5.98683C4.3857 79.9172 2.99342 79.3603 1.80997 78.1769C0.62653 76.9934 0 75.6011 0 73.9304ZM19.9097 122.173C19.9097 120.572 20.4666 119.18 21.5108 117.927L31.7441 107.972C32.7883 106.858 34.1806 106.371 35.8514 106.371C37.5221 106.371 38.9144 106.928 40.0282 107.972C41.1421 109.016 41.699 110.339 41.699 111.94C41.699 113.611 41.1421 115.142 40.0282 116.395L30.143 126.28C27.2888 128.508 24.4346 128.508 21.5804 126.28C20.4666 125.167 19.9097 123.774 19.9097 122.173ZM19.9097 25.8269C19.9097 24.2258 20.4666 22.8335 21.5108 21.5804C22.9031 20.397 24.365 19.8401 25.9661 19.8401C27.4977 19.8401 28.8899 20.397 30.0734 21.5108L40.0282 31.7441C41.1421 32.7883 41.699 34.1806 41.699 35.8514C41.699 37.5221 41.1421 38.9144 40.0282 40.0282C38.9144 41.1421 37.5221 41.699 35.8514 41.699C34.1806 41.699 32.7883 41.1421 31.7441 40.0282L21.5804 30.0734C20.4666 28.9595 19.9097 27.4976 19.9097 25.8269ZM37.6613 73.9304C37.6613 67.4563 39.2625 61.3998 42.5343 55.8307C45.8062 50.2615 50.1919 45.8062 55.8307 42.5343C61.4694 39.2625 67.4563 37.6613 73.9304 37.6613C78.8034 37.6613 83.4676 38.6359 87.9925 40.5851C92.4478 42.5343 96.3462 45.1101 99.5485 48.3819C102.82 51.6538 105.396 55.4826 107.276 59.9379C109.155 64.3932 110.13 69.127 110.13 74C110.13 80.5437 108.529 86.6002 105.257 92.1693C101.985 97.7385 97.5993 102.124 92.0301 105.396C86.461 108.668 80.4045 110.269 73.8608 110.269C67.317 110.269 61.2606 108.668 55.6914 105.396C50.1223 102.124 45.7366 97.7385 42.4647 92.1693C39.3321 86.5306 37.6613 80.4741 37.6613 73.9304ZM49.4958 73.9304C49.4958 80.7526 51.8627 86.5306 56.666 91.334C61.3998 96.1374 67.1778 98.5738 74 98.5738C80.8222 98.5738 86.6002 96.1374 91.4036 91.334C96.207 86.5306 98.6435 80.7526 98.6435 73.9304C98.6435 67.2474 96.207 61.539 91.4036 56.7357C86.6002 52.0019 80.8222 49.635 74 49.635C67.2474 49.635 61.4694 52.0019 56.7357 56.7357C51.8627 61.539 49.4958 67.2474 49.4958 73.9304ZM68.0132 128.09C68.0132 126.42 68.5701 125.027 69.7535 123.913C70.937 122.8 72.3293 122.243 73.9304 122.243C75.6011 122.243 77.063 122.8 78.1769 123.913C79.2907 125.027 79.8476 126.42 79.8476 128.09V141.944C79.8476 143.614 79.2907 145.076 78.1073 146.26C76.9238 147.443 75.5315 148 73.9304 148C72.3293 148 70.8674 147.443 69.7535 146.26C68.5701 145.076 68.0132 143.614 68.0132 141.944V128.09ZM68.0132 20.1881V5.98683C68.0132 4.3857 68.5701 2.99342 69.7535 1.80997C70.937 0.62653 72.3293 0 74 0C75.6708 0 76.9934 0.556914 78.1769 1.74036C79.3603 2.9238 79.9172 4.31609 79.9172 5.91721V20.1881C79.9172 21.7893 79.3603 23.1119 78.1769 24.2258C76.9934 25.3396 75.6011 25.8269 74 25.8269C72.3989 25.8269 70.937 25.27 69.8231 24.2258C68.7093 23.1816 68.0132 21.7893 68.0132 20.1881ZM106.44 111.94C106.44 110.339 106.997 109.016 108.041 108.041C109.086 106.928 110.408 106.44 111.94 106.44C113.611 106.44 115.003 106.997 116.117 108.041L126.28 117.996C127.394 119.18 127.951 120.642 127.951 122.243C127.951 123.844 127.394 125.236 126.28 126.35C123.496 128.508 120.711 128.508 117.927 126.35L108.041 116.465C106.997 115.212 106.44 113.75 106.44 111.94ZM106.44 35.921C106.44 34.1806 106.997 32.7883 108.041 31.8137L117.927 21.5804C119.11 20.4666 120.502 19.9097 122.034 19.9097C123.705 19.9097 125.097 20.4666 126.211 21.65C127.394 22.8335 127.951 24.2258 127.951 25.8269C127.951 27.5673 127.394 29.0292 126.28 30.143L116.117 40.0978C114.864 41.2117 113.471 41.7686 111.94 41.7686C110.339 41.7686 109.086 41.2117 108.041 40.0978C106.997 38.984 106.44 37.5917 106.44 35.921ZM122.173 73.9304C122.173 72.2596 122.73 70.8674 123.844 69.6143C124.958 68.5005 126.28 67.9436 127.812 67.9436H141.874C143.475 67.9436 144.867 68.5701 146.051 69.7535C147.234 70.937 147.861 72.3293 147.861 73.9304C147.861 75.5315 147.234 76.9238 146.051 78.1072C144.867 79.2907 143.475 79.8476 141.874 79.8476H127.812C126.211 79.8476 124.818 79.2907 123.774 78.1072C122.73 76.9238 122.173 75.6011 122.173 73.9304Z" fill="white" fill-opacity="0.7"/>
</svg>
