<svg width="40" height="52" viewBox="0 0 40 52" fill="none" xmlns="http://www.w3.org/2000/svg">
<path d="M21.4452 0.4426C21.0184 0.154146 20.5151 0 20 0C19.4849 0 18.9816 0.154146 18.5548 0.4426C17.7806 0.958729 0 13.3458 0 31.6168C0 36.9211 2.10714 42.0082 5.85786 45.7589C9.60859 49.5096 14.6957 51.6168 20 51.6168C25.3043 51.6168 30.3914 49.5096 34.1421 45.7589C37.8929 42.0082 40 36.9211 40 31.6168C40 13.0361 22.1935 0.932922 21.4452 0.4426ZM20 46.4555C16.0666 46.4487 12.2963 44.8831 9.51498 42.1018C6.73366 39.3205 5.16811 35.5502 5.16129 31.6168C5.16129 18.7136 16.0258 8.98453 20 5.81034C24 8.93292 34.8387 18.7136 34.8387 31.6168C34.8319 35.5502 33.2663 39.3205 30.485 42.1018C27.7037 44.8831 23.9334 46.4487 20 46.4555Z" fill="white" fill-opacity="0.7"/>
</svg>
