<svg width="150" height="149" viewBox="0 0 150 149" fill="none" xmlns="http://www.w3.org/2000/svg">
<path d="M0 68.5879C0 60.2305 2.59366 52.8098 7.78098 46.3256C12.9683 39.8415 19.5965 35.5908 27.5216 33.7896C29.755 23.9193 34.7983 15.8501 42.6513 9.51009C50.5043 3.17003 59.5821 0 69.8127 0C75.6484 0 80.9798 0.9366 85.6628 2.88184C85.6628 2.95389 85.6628 2.95389 85.7349 3.02594C91.7867 5.33141 97.1182 9.07781 101.657 14.1931H101.873C106.772 19.4524 110.014 25.7205 111.744 33.0692H113.977C121.758 33.0692 128.53 35.1585 134.366 39.2651V39.1931C138.184 41.7867 141.427 44.9568 144.02 48.7752C146.614 52.5937 148.343 56.7723 149.28 61.3112C149.568 62.8242 149.712 64.049 149.856 65.0576V65.4899C149.856 65.562 149.856 65.9222 149.928 66.7147C150 67.5072 150 68.0836 150 68.4438V68.6599C150 75 148.487 80.9078 145.389 86.3112C142.363 91.7147 138.184 96.1095 132.853 99.3516C127.594 102.594 121.758 104.323 115.418 104.539C114.481 104.539 113.977 104.107 113.977 103.314V93.6599C113.977 92.7233 114.481 92.2911 115.418 92.2911C121.614 92.0029 126.801 89.5533 131.124 84.9424C135.447 80.3314 137.608 74.9279 137.608 68.6599C137.608 62.2478 135.303 56.7723 130.62 52.1614C126.009 47.5504 120.461 45.245 113.977 45.245H102.378C101.513 45.245 101.081 44.8127 101.081 44.0202L100.504 39.7695C99.7839 32.5648 96.7579 26.3689 91.3545 21.1095C91.2824 21.0375 91.2824 20.9654 91.2104 20.8934C91.1383 20.8213 91.0663 20.7493 91.0663 20.6772C90.9942 20.6052 90.9222 20.5331 90.7781 20.5331C90.7781 20.389 90.706 20.317 90.634 20.317C85.3746 15.562 79.2507 12.8242 72.1902 12.2478C71.6859 12.1758 70.8934 12.1758 69.7406 12.1758C61.8156 12.1758 54.9712 14.8415 49.1354 20.1009C43.2997 25.3602 39.9856 31.9164 39.2651 39.6974L38.6888 43.9481C38.4726 44.5965 37.8963 44.9568 37.1037 44.9568L33.5735 45.1729C27.5216 45.8934 22.4063 48.487 18.3718 52.8818C14.3372 57.2767 12.3199 62.536 12.3199 68.5879V68.8761H12.536C12.6081 72.3343 13.3285 75.5764 14.6974 78.6023C16.1383 81.7003 18.0115 84.2939 20.4611 86.4553C21.9741 87.7522 23.7032 88.9049 25.7925 89.9135V89.9856C28.6744 91.3545 31.5562 92.147 34.5101 92.2911C35.3026 92.2911 35.7349 92.7233 35.7349 93.5879V103.242C35.7349 104.035 35.3026 104.467 34.5101 104.467C30.7637 104.251 27.2334 103.53 23.8473 102.305V102.378C17.8674 100.288 12.7522 96.83 8.64553 92.0749C4.5389 87.3199 1.80115 81.7003 0.648413 75.4323V75.2161C0.576367 75.1441 0.576368 75.072 0.576368 74.9279C0.144092 73.0547 0 70.8934 0 68.5879ZM39.6254 120.245C39.6254 120.029 39.6974 119.741 39.7694 119.308C39.8415 118.948 39.9135 118.66 39.9135 118.444L40.562 114.193C41.0663 112.464 42.0029 111.239 43.5159 110.375C45.0288 109.51 46.6138 109.366 48.415 109.798C50.072 110.303 51.2248 111.311 52.0893 112.752C52.8818 114.265 53.0259 115.778 52.5937 117.291L51.585 121.614C50.8646 124.784 49.0634 126.369 46.1095 126.369C45.8934 126.369 45.5331 126.297 45.1009 126.225C44.6686 126.153 44.3804 126.081 44.0922 126.081C42.5793 125.648 41.4986 124.856 40.7781 123.703C39.9856 122.622 39.6254 121.47 39.6254 120.245ZM44.9568 99.0634C44.9568 97.3343 45.5331 95.9654 46.6138 94.8127C47.6945 93.6599 49.1354 93.1556 50.8645 93.1556C52.5937 93.1556 53.9625 93.732 55.1153 94.8127C56.268 95.8934 56.7723 97.3343 56.7723 99.0634C56.7723 100.72 56.196 102.089 55.1153 103.242C54.0346 104.395 52.5937 104.899 50.8645 104.899C49.2075 104.899 47.8386 104.323 46.7579 103.17C45.6052 102.017 44.9568 100.648 44.9568 99.0634ZM56.7723 142.219C56.7723 141.931 56.8444 141.427 57.0605 140.562L57.9971 136.311C58.5014 134.654 59.5101 133.429 60.951 132.637C62.464 131.772 63.9769 131.628 65.4899 132.133C67.147 132.421 68.4438 133.357 69.3084 134.798C70.1729 136.239 70.389 137.896 69.8847 139.697L68.9481 143.948C68.2277 146.902 66.2824 148.343 63.1844 148.343C62.6801 148.343 62.0317 148.271 61.4553 148.127C59.8703 147.695 58.7176 146.902 57.9251 145.749C57.2046 144.597 56.7723 143.444 56.7723 142.219ZM62.464 121.254C62.464 119.597 63.0403 118.156 64.121 117.075C65.2738 115.922 66.6426 115.418 68.3718 115.418C70.1009 115.418 71.4697 115.994 72.6225 117.075C73.7752 118.228 74.2795 119.597 74.2795 121.254C74.2795 122.983 73.7032 124.352 72.6225 125.504C71.4697 126.657 70.1009 127.161 68.3718 127.161C66.7147 127.161 65.3458 126.585 64.1931 125.432C63.0403 124.28 62.464 122.911 62.464 121.254ZM66.9308 104.899C66.9308 104.179 67.0029 103.53 67.147 102.954L68.804 96.4697C69.3084 94.8127 70.317 93.5159 71.7579 92.6513C73.2709 91.7867 74.7839 91.5706 76.3689 92.0749C78.098 92.5792 79.3228 93.5159 80.1873 94.9568C81.0519 96.3977 81.196 97.9107 80.6916 99.4957L78.8184 105.98C78.2421 107.997 77.2334 109.294 75.8645 110.014C74.4957 110.735 72.9107 110.879 71.2536 110.447C69.8127 110.159 68.732 109.438 68.0115 108.285C67.147 107.133 66.8588 105.98 66.9308 104.899ZM86.8156 120.317C86.8156 120.101 86.8156 119.741 86.8876 119.38C86.9596 119.02 86.9596 118.732 86.9596 118.588L87.6081 114.337C88.1124 112.608 89.049 111.383 90.562 110.519C92.0749 109.654 93.6599 109.51 95.4611 109.942C97.1182 110.447 98.3429 111.455 99.1354 112.896C100 114.409 100.144 115.922 99.6398 117.435L98.6311 121.758C97.9107 124.928 96.1095 126.513 93.1556 126.513C92.9395 126.513 92.5792 126.441 92.147 126.369C91.7147 126.297 91.3545 126.225 91.1383 126.225C89.6974 125.793 88.6167 125 87.8963 123.847C87.2478 122.695 86.8156 121.542 86.8156 120.317ZM92.147 99.1354C92.147 97.4063 92.7233 96.0375 93.804 94.8847C94.9568 93.732 96.3257 93.2277 98.0548 93.2277C99.7839 93.2277 101.153 93.804 102.305 94.8847C103.458 96.0375 103.963 97.4063 103.963 99.1354C103.963 100.793 103.386 102.233 102.305 103.314C101.225 104.395 99.8559 104.971 98.1268 104.971C96.3977 104.971 95.0288 104.395 93.9481 103.242C92.7954 102.161 92.147 100.793 92.147 99.1354Z" fill="white" fill-opacity="0.7"/>
</svg>
