<svg width="185" height="122" viewBox="0 0 185 122" fill="none" xmlns="http://www.w3.org/2000/svg">
<path d="M0 85.7958C0 77.5496 2.58217 70.1362 7.74651 63.7224C12.9109 57.3087 19.4912 53.1439 27.5709 51.3114C29.7366 41.5658 34.6511 33.4861 42.3976 27.3222C50.1441 21.075 59.0567 17.9931 69.2188 17.9931C79.0477 17.9931 87.8771 20.9917 95.5403 27.0723C103.287 33.1529 108.285 40.8994 110.534 50.3951H112.783C122.611 50.3951 130.941 53.8103 137.855 60.7238C144.768 67.6374 148.267 75.9669 148.267 85.7126C148.267 95.5415 144.768 103.871 137.855 110.785C130.941 117.698 122.611 121.197 112.783 121.197H35.5673C30.7362 121.197 26.1549 120.28 21.8235 118.365C17.4921 116.449 13.5772 114.116 10.412 110.951C7.24673 107.786 4.74786 103.954 2.83206 99.623C0.916253 95.2916 0 90.5437 0 85.7958ZM12.0779 85.7958C12.0779 92.1263 14.4102 97.6238 18.9081 102.122C23.4061 106.62 28.9869 108.952 35.484 108.952H112.783C119.196 108.952 124.777 106.703 129.358 102.122C133.94 97.5406 136.272 92.1263 136.272 85.7958C136.272 79.4654 134.023 73.9678 129.358 69.4699C124.777 64.9719 119.28 62.6396 112.783 62.6396H101.204C100.371 62.6396 99.955 62.2231 99.955 61.3902L99.3719 57.3087C98.5389 49.4789 95.2071 42.8985 89.4597 37.7342C83.7123 32.5698 76.882 29.9876 69.0522 29.9876C61.2224 29.9876 54.3922 32.5698 48.5615 37.8175C42.7308 42.9818 39.4822 49.5622 38.7325 57.3087L38.1495 60.8071C38.1495 61.6401 37.733 62.0565 36.8167 62.0565L33.0684 62.6396C27.0711 63.1394 22.0734 65.6383 17.9919 70.0529C14.1603 74.4676 12.0779 79.7153 12.0779 85.7958ZM85.7947 13.1619C84.9617 13.9116 85.1283 14.4946 86.3778 14.9111C89.9595 16.4937 92.9581 17.9931 95.3737 19.4924C96.29 19.7423 96.9563 19.659 97.2062 19.2425C102.287 14.4946 108.118 12.079 114.865 12.079C121.612 12.079 127.359 14.328 132.357 18.826C137.272 23.324 140.02 28.9048 140.603 35.4852L141.353 40.8161H153.181C158.595 40.8161 163.26 42.7319 167.175 46.6468C171.09 50.5617 173.005 55.143 173.005 60.4739C173.005 65.4717 171.256 69.803 167.841 73.5514C164.426 77.2997 160.178 79.3821 155.097 79.9651C154.264 79.9651 153.847 80.3816 153.847 81.2979V90.7103C153.847 91.6266 154.264 92.043 155.097 92.043C163.51 91.5433 170.59 88.2114 176.337 82.1308C182.085 76.0502 185 68.8035 185 60.4739C185 51.6446 181.918 44.1479 175.671 37.984C169.424 31.7369 161.927 28.6549 153.181 28.6549H151.932C149.766 20.3253 145.185 13.4951 138.188 8.08085C131.274 2.66663 123.444 0.00115695 114.865 0.00115695C103.204 -0.0821389 93.4579 4.33254 85.7947 13.1619Z" fill="white" fill-opacity="0.7"/>
</svg>
