<svg width="25" height="25" viewBox="0 0 25 25" fill="none" xmlns="http://www.w3.org/2000/svg">
<path d="M24.649 22.875L20.0142 18.2778C21.8133 16.0346 22.6845 13.1874 22.4488 10.3216C22.2131 7.45582 20.8883 4.78926 18.7469 2.87022C16.6055 0.951193 13.8102 -0.0744426 10.9358 0.0042112C8.06138 0.082865 5.32636 1.25983 3.2931 3.2931C1.25983 5.32636 0.082865 8.06138 0.0042112 10.9358C-0.0744426 13.8102 0.951193 16.6055 2.87022 18.7469C4.78926 20.8883 7.45582 22.2131 10.3216 22.4488C13.1874 22.6845 16.0346 21.8133 18.2778 20.0142L22.875 24.6115C22.9912 24.7286 23.1293 24.8215 23.2816 24.8849C23.4338 24.9484 23.5971 24.981 23.762 24.981C23.9269 24.981 24.0902 24.9484 24.2424 24.8849C24.3947 24.8215 24.5328 24.7286 24.649 24.6115C24.8741 24.3785 25 24.0672 25 23.7433C25 23.4193 24.8741 23.108 24.649 22.875ZM11.2694 20.0142C9.53987 20.0142 7.84915 19.5014 6.41107 18.5405C4.973 17.5796 3.85216 16.2138 3.19028 14.6159C2.52841 13.018 2.35523 11.2597 2.69265 9.5634C3.03007 7.86707 3.86294 6.3089 5.08592 5.08592C6.3089 3.86294 7.86707 3.03007 9.5634 2.69265C11.2597 2.35523 13.018 2.52841 14.6159 3.19028C16.2138 3.85216 17.5796 4.973 18.5405 6.41107C19.5014 7.84915 20.0142 9.53987 20.0142 11.2694C20.0142 13.5887 19.0929 15.813 17.4529 17.4529C15.813 19.0929 13.5887 20.0142 11.2694 20.0142Z" fill="white" fill-opacity="0.7"/>
</svg>
