<svg width="154" height="148" viewBox="0 0 154 148" fill="none" xmlns="http://www.w3.org/2000/svg">
<path d="M0 70.374C0 61.79 2.59 54.242 7.844 47.582C13.098 40.922 19.832 36.63 28.12 34.558C30.414 24.494 35.594 16.206 43.66 9.694C51.726 3.182 60.976 0 71.41 0C81.622 0 90.65 3.182 98.642 9.472C106.634 15.762 111.814 23.902 114.182 33.818H116.55C123.136 33.818 129.278 35.446 134.902 38.702C140.526 41.958 145.04 46.398 148.296 52.022C151.552 57.646 153.254 63.788 153.254 70.374C153.254 80.142 149.85 88.652 142.968 95.682C136.16 102.786 127.798 106.486 117.956 106.782C116.994 106.782 116.476 106.338 116.476 105.524V95.682C116.476 94.794 116.994 94.35 117.956 94.35C124.246 94.054 129.648 91.538 134.088 86.802C138.528 82.066 140.748 76.59 140.748 70.3C140.748 63.714 138.38 58.09 133.57 53.28C128.76 48.47 123.062 46.102 116.402 46.102H104.488C103.6 46.102 103.156 45.658 103.156 44.844L102.564 40.552C101.75 32.56 98.272 25.826 92.278 20.424C86.21 15.022 79.254 12.284 71.188 12.284C63.048 12.284 56.018 15.022 50.024 20.498C44.03 25.974 40.626 32.708 39.886 40.848L39.442 44.548C39.442 45.436 38.924 45.954 37.962 45.954L34.04 46.472C27.898 46.99 22.718 49.506 18.5 54.168C14.282 58.83 12.21 64.158 12.21 70.374C12.21 76.664 14.43 82.14 18.87 86.876C23.31 91.612 28.712 94.054 35.002 94.424C35.816 94.424 36.26 94.868 36.26 95.756V105.598C36.26 106.412 35.816 106.856 35.002 106.856C25.086 106.56 16.724 102.86 9.842 95.756C3.404 88.652 0 80.142 0 70.374ZM47.064 100.492C47.064 98.864 47.656 97.384 48.84 96.2C50.024 95.016 51.43 94.424 53.206 94.424C54.908 94.424 56.388 95.016 57.572 96.2C58.756 97.384 59.348 98.864 59.348 100.492C59.348 102.268 58.756 103.748 57.572 104.932C56.388 106.19 54.982 106.782 53.206 106.782C51.504 106.782 50.024 106.19 48.84 104.932C47.656 103.748 47.064 102.268 47.064 100.492ZM47.064 127.354C47.064 125.578 47.656 124.098 48.84 122.914C50.024 121.804 51.43 121.212 53.132 121.212C54.834 121.212 56.314 121.804 57.498 122.914C58.682 124.098 59.274 125.504 59.274 127.28C59.274 129.056 58.682 130.462 57.498 131.646C56.314 132.83 54.908 133.348 53.132 133.348C51.43 133.348 49.95 132.756 48.766 131.646C47.656 130.536 47.064 129.056 47.064 127.354ZM70.67 114.774C70.67 113.072 71.262 111.518 72.52 110.186C73.704 109.002 75.11 108.41 76.738 108.41C78.44 108.41 79.92 109.076 81.178 110.334C82.436 111.592 83.102 113.072 83.102 114.774C83.102 116.476 82.51 117.956 81.252 119.214C79.994 120.472 78.514 121.064 76.738 121.064C75.036 121.064 73.63 120.472 72.446 119.214C71.262 117.956 70.67 116.476 70.67 114.774ZM70.67 87.986C70.67 86.284 71.262 84.804 72.52 83.546C73.852 82.362 75.258 81.77 76.738 81.77C78.514 81.77 79.994 82.362 81.252 83.62C82.51 84.878 83.102 86.284 83.102 88.06C83.102 89.762 82.51 91.242 81.252 92.426C79.994 93.61 78.514 94.202 76.738 94.202C75.036 94.202 73.63 93.61 72.446 92.426C71.262 91.168 70.67 89.688 70.67 87.986ZM70.67 141.858C70.67 140.156 71.262 138.676 72.52 137.344C73.704 136.16 75.11 135.568 76.738 135.568C78.514 135.568 79.994 136.16 81.252 137.418C82.51 138.676 83.102 140.156 83.102 141.858C83.102 143.56 82.51 145.04 81.252 146.224C79.994 147.408 78.514 148 76.738 148C75.036 148 73.63 147.408 72.446 146.224C71.262 144.966 70.67 143.56 70.67 141.858ZM94.498 100.492C94.498 98.864 95.09 97.458 96.348 96.2C97.606 94.942 99.086 94.35 100.788 94.35C102.49 94.35 103.97 94.942 105.154 96.126C106.338 97.31 106.93 98.79 106.93 100.418C106.93 102.194 106.338 103.674 105.154 104.858C103.97 106.116 102.564 106.708 100.788 106.708C99.012 106.708 97.532 106.116 96.348 104.858C95.164 103.674 94.498 102.194 94.498 100.492ZM94.498 127.354C94.498 125.726 95.09 124.246 96.348 122.914C97.532 121.804 99.012 121.212 100.788 121.212C102.564 121.212 103.97 121.804 105.154 122.914C106.338 124.024 106.856 125.504 106.856 127.28C106.856 129.056 106.264 130.462 105.154 131.646C103.97 132.83 102.564 133.348 100.788 133.348C99.012 133.348 97.532 132.756 96.348 131.572C95.164 130.462 94.498 129.056 94.498 127.354Z" fill="white" fill-opacity="0.7"/>
</svg>
