<svg width="152" height="148" viewBox="0 0 152 148" fill="none" xmlns="http://www.w3.org/2000/svg">
<path d="M0 68.7195C0 76.7488 2.41618 83.9101 7.24855 90.2033C12.0809 96.4966 18.3776 100.837 26.1387 103.152L21.3064 115.304C21.0867 116.317 21.4528 116.895 22.3314 116.895H37.9268L30.7514 148H32.8015L61.5029 106.407C61.7958 106.117 61.7958 105.756 61.5761 105.394C61.3565 105.032 60.9904 104.888 60.4778 104.888H44.5164L62.6744 71.3236C63.1869 70.3109 62.8208 69.7322 61.6493 69.7322H40.1233C39.4644 69.7322 38.8786 70.0938 38.4393 70.8172L30.605 91.5777C25.4066 90.2757 21.0867 87.4545 17.6455 83.1867C14.2042 78.9189 12.5202 74.0723 12.5202 68.6471C12.5202 62.6432 14.5703 57.435 18.7437 52.9501C22.9171 48.5376 28.0424 45.9335 34.1195 45.2102L38 44.7038C38.9518 44.7038 39.4644 44.2698 39.4644 43.4018L39.9769 39.7126C40.7823 31.9003 44.0771 25.3177 50.0077 20.0371C55.9383 14.7566 62.894 12.0802 70.8748 12.0802C78.8555 12.0802 85.8112 14.7566 91.7418 20.0371C97.7457 25.3177 101.114 31.9003 101.992 39.7126L102.505 43.9081C102.505 44.7038 102.944 45.1378 103.823 45.1378H115.538C122.2 45.1378 127.838 47.4526 132.524 52.0098C137.21 56.567 139.626 62.1368 139.626 68.5024C139.626 74.651 137.43 80.0039 133.11 84.4888C128.79 88.9736 123.372 91.5054 117.002 92.0117C116.05 92.0117 115.538 92.4457 115.538 93.3138V103.224C115.538 104.02 116.05 104.454 117.002 104.454C126.74 104.164 135.013 100.475 141.823 93.5308C148.632 86.5865 152 78.2678 152 68.5748C152 62.0645 150.389 56.0606 147.094 50.563C143.873 45.0655 139.407 40.7253 133.842 37.5425C128.204 34.3597 122.127 32.7683 115.538 32.7683H113.268C110.852 23.1476 105.653 15.263 97.8189 9.18671C89.9846 3.11046 80.9788 0 70.8748 0C60.5511 0 51.3256 3.1828 43.3449 9.47605C35.3642 15.7693 30.2389 23.871 27.9692 33.781C19.842 35.6618 13.1792 39.785 7.90751 46.2952C2.63584 52.8055 0 60.4008 0 68.7195ZM59.5992 138.958C59.5992 141.779 60.9904 143.66 63.8459 144.528C63.9191 144.528 64.212 144.528 64.6513 144.6C65.0906 144.673 65.4566 144.673 65.6763 144.673C66.921 144.673 68.0925 144.311 69.264 143.587C70.4355 142.864 71.2409 141.707 71.6069 140.115L88.0809 77.2551C88.5202 75.5191 88.3738 74 87.5684 72.5533C86.763 71.1789 85.5915 70.2385 83.9075 69.7322C82.6628 69.5875 82.0039 69.5152 82.0039 69.5152C80.8324 69.5152 79.6609 69.8768 78.5626 70.6002C77.4644 71.3236 76.659 72.4086 76.2929 73.8553L59.7457 136.933C59.6725 137.656 59.5992 138.307 59.5992 138.958ZM90.0578 116.823C90.0578 117.763 90.2775 118.704 90.79 119.572C91.815 121.163 93.0597 122.248 94.5241 122.755C95.3295 122.972 96.0617 123.116 96.7206 123.116C97.3796 123.116 98.185 122.972 99.0636 122.538C100.601 121.887 101.626 120.512 102.139 118.414L112.682 77.3998C112.902 76.3871 113.048 75.7361 113.048 75.4467C113.048 74.3617 112.682 73.2766 111.877 72.1916C111.071 71.1065 109.973 70.3108 108.509 69.8768C107.264 69.7322 106.605 69.6598 106.605 69.6598C105.36 69.6598 104.189 70.0215 103.164 70.7449C102.139 71.4682 101.407 72.5533 100.967 74L90.2775 115.232C90.2775 115.376 90.2775 115.593 90.2042 116.027C90.0578 116.389 90.0578 116.606 90.0578 116.823Z" fill="white" fill-opacity="0.7"/>
</svg>
