<svg width="55" height="30" viewBox="0 0 55 30" fill="none" xmlns="http://www.w3.org/2000/svg">
<path d="M0 18.5336C0 19.0882 0.207984 19.5735 0.647059 19.9664C1.01681 20.4055 1.5021 20.6134 2.10294 20.6134H36.0504C36.7206 20.6134 37.2752 20.8445 37.7374 21.3067C38.1996 21.7689 38.4307 22.3466 38.4307 23.0168C38.4307 23.687 38.1996 24.2416 37.7374 24.6807C37.2752 25.1197 36.7206 25.3508 36.0273 25.3508C35.3571 25.3508 34.7794 25.1197 34.3403 24.6807C33.9706 24.2647 33.5084 24.0798 32.9538 24.0798C32.3761 24.0798 31.8908 24.2878 31.4748 24.6807C31.0588 25.0735 30.8508 25.5588 30.8508 26.0903C30.8508 26.6681 31.0588 27.1534 31.4979 27.5462C32.792 28.8172 34.3172 29.4643 36.0273 29.4643C37.8298 29.4643 39.3782 28.8403 40.6723 27.5924C41.9664 26.3445 42.5903 24.8424 42.5903 23.0399C42.5903 21.2374 41.9433 19.7122 40.6492 18.4181C39.355 17.124 37.8067 16.4769 36.0273 16.4769H2.10294C1.52521 16.4769 1.03992 16.6849 0.62395 17.0777C0.207983 17.4706 0 17.9559 0 18.5336ZM0 10.9538C0 11.4853 0.207984 11.9475 0.647059 12.3634C1.03992 12.7794 1.52521 12.9643 2.10294 12.9643H48.4139C50.2164 12.9643 51.7647 12.3403 53.0588 11.0693C54.3529 9.82143 55 8.29622 55 6.51681C55 4.7374 54.3529 3.18908 53.0588 1.91807C51.7647 0.647059 50.2164 0 48.4139 0C46.6345 0 45.1324 0.62395 43.9076 1.84874C43.4916 2.21849 43.2836 2.72689 43.2836 3.39706C43.2836 3.9979 43.4916 4.48319 43.8845 4.85294C44.2773 5.22269 44.7626 5.40756 45.3403 5.40756C45.895 5.40756 46.3803 5.22269 46.7962 4.85294C47.2353 4.36765 47.7668 4.13655 48.4139 4.13655C49.084 4.13655 49.6387 4.36765 50.1008 4.82983C50.563 5.29202 50.7941 5.84664 50.7941 6.51681C50.7941 7.18698 50.563 7.7416 50.1008 8.18067C49.6387 8.61975 49.084 8.85084 48.4139 8.85084H2.10294C1.52521 8.85084 1.03992 9.05882 0.62395 9.45168C0.207983 9.89076 0 10.3761 0 10.9538Z" fill="white" fill-opacity="0.7"/>
</svg>
